
<svg viewBox="0 0 630 120" width="189" height="36">
  <title>Logo of lea.lgbt in trans pride colors</title>
  <filter id="shadow" color-interpolation-filters="sRGB">
    <feDropShadow dx="6" dy="6" stdDeviation="0" flood-opacity="1"></feDropShadow>
  </filter>
  <defs>
    <linearGradient id="transPride" gradientTransform="rotate(90)">
      <stop offset="20%" stop-color="deepskyblue"></stop>
      <stop offset="20%" stop-color="hotpink"></stop>
      <stop offset="40%" stop-color="hotpink"></stop>
      <stop offset="40%" stop-color="white"></stop>
      <stop offset="60%" stop-color="white"></stop>
      <stop offset="60%" stop-color="hotpink"></stop>
      <stop offset="80%" stop-color="hotpink"></stop>
      <stop offset="80%" stop-color="deepskyblue"></stop>
    </linearGradient>
  </defs>
  <g stroke="currentColor" stroke-width="4" fill="url(#transPride)" stroke-lineJoin="round" filter="url(#shadow)">
    <path d="M10 10 v100 h60 v-20 h-40v-80z"></path>
    <path d="M80 10 v100 h60 v-20 h-40v-20h20v-20h-20v-20h40v-20z"></path>
    <path d="M160 10 v100 h20 v-40 h20 v40 h20v-100zm 20 20 h20 v20 h-20z"></path>
    <path d="M240 90 h20 v20 h-20z"></path>
    <path d="M280 10 v100 h60 v-20 h-40v-80z"></path>
    <path d="M360 10 v100 h80 v-60 h-40v20h20v20h-40v-60h60v-20z"></path>
    <path d="M460 10 v100 h80 v-60 h-20 v-40z m20 20 h20v20h-20z m0 40 h40v20h-40z"></path>
    <path d="M560 10 v20 h20 v80 h20 v-80 h20 v-20z"></path>
  </g>
</svg>